# xmcd
#
# Track frame offsets: 
#        150
#        17307
#        39467
#
# Disc length: 866 seconds
#
# Revision: 0
# Processed by: cddbd v1.5.2PL0 Copyright (c) Steve Scherf et al.
# Submitted via: ExactAudioCopy v0.99pb5
#
DISCID=14036003
DTITLE=Scooter - (Maxi) She's The Sun
DYEAR=2000
DGENRE=
TTITLE0=She's the sun
TTITLE1=She's the sun (Extended)
TTITLE2=Sunrise (Ratty's inferno)
EXTD=
EXTT0=
EXTT1=
EXTT2=
PLAYORDER=
